<?xml version="1.0" standalone="no"?>
<!DOCTYPE svg PUBLIC "-//W3C//DTD SVG 20010904//EN"
 "http://www.w3.org/TR/2001/REC-SVG-20010904/DTD/svg10.dtd">
<svg version="1.0" xmlns="http://www.w3.org/2000/svg"
 width="225.000000pt" height="130.000000pt" viewBox="0 0 225.000000 130.000000"
 preserveAspectRatio="xMidYMid meet">

<g transform="translate(0.000000,130.000000) scale(0.100000,-0.100000)"
fill="#000000" stroke="none">
<path d="M1850 1131 c-209 -48 -377 -144 -537 -309 l-83 -85 0 -98 c0 -98 0
-99 -24 -99 -18 0 -32 12 -52 44 -33 52 -54 50 -54 -5 0 -35 -3 -39 -25 -39
-16 0 -25 6 -25 16 0 13 -4 12 -27 -4 -81 -57 -255 -122 -328 -122 l-30 0 40
-23 c50 -28 88 -83 82 -120 -4 -33 -4 -33 119 -2 182 46 331 142 428 274 35
47 36 52 36 135 l0 86 31 0 c31 0 32 0 27 -45 -3 -25 -5 -45 -3 -45 4 0 63 86
63 93 0 19 65 87 123 131 117 88 259 161 419 216 l55 19 -80 0 c-44 0 -114 -8
-155 -18z"/>
<path d="M2090 831 c0 -5 7 -12 16 -15 14 -5 15 -4 4 9 -14 17 -20 19 -20 6z"/>
<path d="M1172 670 c0 -14 2 -19 5 -12 2 6 2 18 0 25 -3 6 -5 1 -5 -13z"/>
<path d="M1967 599 c7 -7 15 -10 18 -7 3 3 -2 9 -12 12 -14 6 -15 5 -6 -5z"/>
</g>
</svg>
