<?xml version="1.0" standalone="no"?>
<svg viewBox="0 0 200 200" xmlns="http://www.w3.org/2000/svg">
  <path fill="#BAE6FF" d="M36.9,-66.9C47.9,-57.6,56.8,-47.8,64.6,-36.5C72.4,-25.3,79,-12.7,79.8,0.4C80.5,13.5,75.3,27,67.6,38.3C59.9,49.7,49.6,58.9,37.9,66.6C26.2,74.4,13.1,80.8,-0.4,81.5C-14,82.3,-27.9,77.4,-41.9,71C-56,64.5,-70.1,56.6,-79.4,44.5C-88.8,32.4,-93.4,16.2,-91.1,1.3C-88.8,-13.5,-79.5,-27,-70.5,-39.8C-61.6,-52.6,-52.9,-64.6,-41.2,-73.5C-29.5,-82.4,-14.8,-88.1,-0.9,-86.5C13,-85,25.9,-76.2,36.9,-66.9Z" transform="translate(100 100)" />
</svg>
